PathFileType	4	(X/Y/Z)	 s07c0101.trc
DataRate	CameraRate	NumFrames	NumMarkers	Units	OrigDataRate	OrigDataStartFrame	OrigNumFrames
200	200	4	48	mm	200	1251	2000
Frame#	Time	racr			lacr			c7			jug			rlel			rdr			llel			ldr			s2			lic			ric			lasi			rasi			rpsi			lpsi			rgt			lgt			rth1			rth2			rth3			rth4			rlfc			rmfc			rsh1			rsh2			rsh3			rsh4			rlmal			rcal			rtoe			rmt5			lth1			lth2			lth4			lth3			llfc			lmfc			lsh1			lsh2			lsh3			lsh4			llmal			lcal			ltoe			lmt5			SBIKE			LBIKE			RBIKE			
		X1	Y1	Z1	X2	Y2	Z2	X3	Y3	Z3	X4	Y4	Z4	X5	Y5	Z5	X6	Y6	Z6	X7	Y7	Z7	X8	Y8	Z8	X9	Y9	Z9	X10	Y10	Z10	X11	Y11	Z11	X12	Y12	Z12	X13	Y13	Z13	X14	Y14	Z14	X15	Y15	Z15	X16	Y16	Z16	X17	Y17	Z17	X18	Y18	Z18	X19	Y19	Z19	X20	Y20	Z20	X21	Y21	Z21	X22	Y22	Z22	X23	Y23	Z23	X24	Y24	Z24	X25	Y25	Z25	X26	Y26	Z26	X27	Y27	Z27	X28	Y28	Z28	X29	Y29	Z29	X30	Y30	Z30	X31	Y31	Z31	X32	Y32	Z32	X33	Y33	Z33	X34	Y34	Z34	X35	Y35	Z35	X36	Y36	Z36	X37	Y37	Z37	X38	Y38	Z38	X39	Y39	Z39	X40	Y40	Z40	X41	Y41	Z41	X42	Y42	Z42	X43	Y43	Z43	X44	Y44	Z44	X45	Y45	Z45	X46	Y46	Z46	X47	Y47	Z47	X48	Y48	Z48	
1251	6.2550	465.470540	1406.813222	-25.895766	518.596637	1378.333459	-284.962650	456.960410	1445.923443	-163.954747	403.653479	1300.881326	-168.036800	493.654696	1076.353786	86.135021	712.356031	917.055636	-43.180459	515.823361	1105.859975	-513.282732	718.132550	916.309054	-410.043603	-126.173540	1206.687909	-263.907012	54.769834	1254.819927	-385.625868	17.421757	1261.867466	-96.208820	77.013943	1181.344641	-354.726625	42.304098	1209.289390	-107.166364	-106.664783	1251.161838	-212.747733	-82.611927	1255.099537	-320.402972	-25.900620	1129.869341	-55.760473	5.274495	1097.745393	-416.238383	96.636770	1022.570240	-52.803625	170.828828	976.606281	-64.001066	213.470729	902.766665	-68.449687	195.381911	1001.558174	-77.421366	299.515392	794.405910	-100.174878	282.263476	773.838515	-202.282875	269.827619	655.580228	-67.287780	272.842958	567.448795	-84.167964	238.101654	488.567619	-75.031561	286.341138	567.467931	-122.225862	207.264911	349.006087	-69.353612	148.291511	295.119314	-93.409433	435.242972	336.625838	-120.604593	369.888713	286.777887	-47.175460	92.191741	1015.154239	-414.716176	173.998318	980.813192	-409.086078	194.066706	1008.651181	-396.650699	229.031440	910.848603	-400.593323	337.358512	781.127980	-361.023155	320.149820	763.861572	-263.125188	226.052949	681.680064	-383.238673	176.633811	612.330116	-368.525297	96.151019	572.800416	-379.271495	180.015412	611.595993	-326.791225	-11.026565	497.264009	-385.586495	-88.210010	505.828351	-352.353729	126.017050	311.058180	-352.317669	48.060174	343.116772	-413.908303	-260.772188	980.113494	-231.271647	-76.320184	83.131269	-435.488193	-82.192509	79.305007	-38.098335	
1252	6.2600	466.734456	1406.665732	-26.403135	517.950523	1379.660619	-286.962531	457.036385	1446.915107	-164.790275	403.629715	1301.922211	-169.415719	494.586143	1076.607295	86.973254	712.412351	917.007838	-42.994021	515.246372	1105.313697	-512.820836	718.089578	916.271117	-409.732811	-125.799718	1206.125357	-261.316452	54.207911	1254.729645	-383.227585	19.804593	1259.909793	-96.311931	76.787297	1181.263738	-352.546036	43.438068	1207.931222	-104.858101	-106.223219	1250.452504	-209.599136	-82.696664	1254.629256	-317.703052	-25.228357	1128.134532	-53.761530	5.364787	1098.126966	-414.655447	95.354641	1019.201389	-51.749731	168.469305	971.631224	-63.067261	209.500672	896.979190	-67.496475	193.362568	996.736372	-76.735178	293.422453	786.051128	-99.575528	276.050102	765.675616	-201.270140	265.498543	647.187193	-66.488536	270.121677	559.082703	-83.264598	235.443281	479.770098	-73.837419	282.354212	558.889758	-122.468512	205.657298	339.731252	-68.132086	146.557694	286.227601	-91.715976	433.653696	326.169671	-120.668838	368.670062	276.411325	-47.156177	93.553174	1016.837061	-413.702236	176.089017	984.423847	-408.338383	195.580532	1012.899784	-396.578581	232.915164	916.166455	-399.563249	344.542705	789.011090	-360.638311	325.711328	772.682160	-262.380210	232.323265	690.583795	-382.375919	182.771770	621.374547	-368.318565	101.727793	582.445972	-379.119669	186.365183	620.442037	-326.575901	-5.653547	508.102225	-385.278828	-82.288736	518.138339	-352.278029	127.138994	318.554422	-351.245225	50.647098	352.907524	-413.706669	-260.760447	980.000940	-230.881827	-76.304904	83.131466	-435.467490	-82.183153	79.270478	-38.063373	
1253	6.2650	468.486495	1406.921995	-27.078452	517.072225	1381.049079	-289.167004	457.070566	1448.170464	-165.722565	403.763890	1303.144930	-170.590812	495.551318	1076.966601	87.793636	712.285218	916.945064	-42.761280	514.643613	1104.877971	-512.438268	717.949320	916.305307	-409.563141	-125.241439	1205.737994	-258.621179	53.682615	1255.275568	-380.987716	20.190838	1259.041108	-91.551085	76.687872	1181.809776	-350.842482	44.785971	1206.662827	-102.562959	-105.360573	1249.760828	-206.607871	-82.758911	1254.270903	-314.690820	-24.384562	1126.423043	-51.825193	5.443894	1099.143741	-413.157489	94.300436	1015.746819	-50.419263	166.307465	966.692236	-62.153040	205.852116	891.181262	-66.601608	191.688737	991.177295	-76.120833	287.505818	777.881528	-98.870112	269.552916	757.313054	-200.105662	261.096443	638.971396	-65.720262	266.485084	550.921067	-82.602212	232.725760	471.163821	-72.829634	277.819992	551.138123	-121.884913	203.661990	330.835036	-66.846207	143.965794	277.992050	-89.716291	431.247211	314.074962	-122.486421	366.807155	265.850898	-47.289525	95.034334	1019.147408	-412.484642	177.995587	988.517090	-406.777334	197.140851	1017.995125	-396.702353	236.730138	921.999865	-398.646479	351.874289	797.643956	-360.085710	333.338538	781.485950	-261.869766	239.406920	699.824121	-382.027713	189.516261	630.853062	-368.258212	108.521945	592.279622	-378.138034	193.297861	629.532883	-326.511984	0.432481	518.823677	-384.904516	-75.759447	530.365577	-351.957721	128.120308	325.166320	-349.375801	54.113316	362.950085	-414.036889	-260.767485	979.972374	-230.396179	-76.320183	83.146748	-435.455324	-82.187486	79.253896	-38.046555	
1254	6.2700	469.819678	1406.996189	-27.836181	515.967313	1382.611856	-291.380754	457.021694	1449.726810	-166.807116	403.085723	1304.954528	-172.348312	496.487672	1077.414496	88.636565	712.102568	916.947462	-42.456512	513.849486	1104.497441	-512.120683	717.757678	916.425122	-409.511686	-124.755301	1205.579127	-255.658413	53.013696	1256.180257	-378.841767	21.485992	1258.135456	-88.742612	76.472845	1182.668615	-348.898581	46.323449	1205.397091	-100.453609	-104.435146	1249.118055	-203.473485	-83.033016	1254.709604	-311.581892	-23.284407	1124.636302	-49.904935	5.647860	1100.718650	-411.764152	93.398698	1012.094760	-49.142392	164.360804	961.669096	-61.199235	202.252052	885.372182	-65.731530	189.632164	985.172258	-76.168995	281.646626	769.962911	-98.272223	262.764297	749.058794	-198.870324	256.203341	630.862186	-64.848982	262.308510	542.820880	-81.911464	229.513903	462.855231	-71.956458	273.355468	543.325885	-121.415132	201.291199	322.300523	-65.811615	141.225811	269.976276	-88.354577	428.498626	302.889225	-123.161772	363.535798	255.195508	-48.043409	96.662120	1022.101315	-411.135226	180.218280	993.473774	-405.802393	198.949543	1023.592446	-396.924294	240.328017	928.241012	-397.279749	359.548865	807.906098	-361.000627	340.826874	790.880479	-262.245247	246.921824	709.634254	-381.764538	196.839824	640.776284	-368.300990	115.658006	602.624554	-378.713504	200.838611	638.954960	-326.642812	7.452448	529.456936	-384.706239	-67.877462	542.451953	-352.009734	129.164486	331.067323	-346.933349	58.026607	372.112987	-413.478616	-260.655971	980.081565	-230.363492	-76.326712	83.164905	-435.443706	-82.194032	79.235612	-38.023579	
